<?xml version="1.0" encoding="iso-8859-1"?>
<!-- Generator: Adobe Illustrator 19.0.0, SVG Export Plug-In . SVG Version: 6.00 Build 0)  -->
<svg version="1.1" id="Capa_1" xmlns="http://www.w3.org/2000/svg" xmlns:xlink="http://www.w3.org/1999/xlink" x="0px" y="0px"
	 viewBox="0 0 511.734 511.734" style="enable-background:new 0 0 511.734 511.734;" xml:space="preserve">
<g>
	<g>
		<g>
			<path d="M410.534,151.467h2.133l29.867-29.867l-29.867-29.867l-32,32c-30.387-20.811-65.688-33.313-102.4-36.267v-44.8h42.667V0
				h-128v42.667H235.6v44.8c-36.712,2.954-72.013,15.456-102.4,36.267l-32-32L71.334,121.6l29.867,29.867
				c-81.149,85.42-77.686,220.451,7.734,301.6s220.451,77.687,301.6-7.734C488.756,362.994,488.756,233.806,410.534,151.467z
				 M256.934,469.333c-94.257,0-170.667-76.41-170.667-170.667S162.677,128,256.934,128S427.6,204.41,427.6,298.667
				S351.19,469.333,256.934,469.333z"/>
			<path d="M256.934,149.333c-82.475,0-149.333,66.859-149.333,149.333S174.459,448,256.934,448s149.333-66.859,149.333-149.333
				S339.408,149.333,256.934,149.333z M276.134,315.733c-10.015,10.015-26.252,10.015-36.267,0s-10.015-26.252,0-36.267
				l102.4-66.133L276.134,315.733z"/>
		</g>
	</g>
</g>
<g>
</g>
<g>
</g>
<g>
</g>
<g>
</g>
<g>
</g>
<g>
</g>
<g>
</g>
<g>
</g>
<g>
</g>
<g>
</g>
<g>
</g>
<g>
</g>
<g>
</g>
<g>
</g>
<g>
</g>
</svg>
